<mxfile host="app.diagrams.net" modified="2023-06-08T12:40:18.941Z" agent="Mozilla/5.0 (Windows NT 10.0; Win64; x64; rv:109.0) Gecko/20100101 Firefox/113.0" etag="GpNTGEPPa9fv0qnHKubM" version="21.3.7" type="device">
  <diagram name="Страница 1" id="EZ4I7VkS2-wpPDujZD9Z">
    <mxGraphModel dx="656" dy="354" grid="1" gridSize="10" guides="1" tooltips="1" connect="1" arrows="1" fold="1" page="1" pageScale="1" pageWidth="827" pageHeight="1169" math="0" shadow="0">
      <root>
        <mxCell id="0" />
        <mxCell id="1" parent="0" />
        <mxCell id="fdzjdsh3oz5JiILfP0fA-7" style="edgeStyle=orthogonalEdgeStyle;rounded=0;orthogonalLoop=1;jettySize=auto;html=1;exitX=1;exitY=0.5;exitDx=0;exitDy=0;entryX=0;entryY=0.5;entryDx=0;entryDy=0;endArrow=none;endFill=0;" edge="1" parent="1" source="fdzjdsh3oz5JiILfP0fA-1" target="fdzjdsh3oz5JiILfP0fA-4">
          <mxGeometry relative="1" as="geometry" />
        </mxCell>
        <mxCell id="fdzjdsh3oz5JiILfP0fA-1" value="" style="rounded=0;whiteSpace=wrap;html=1;" vertex="1" parent="1">
          <mxGeometry x="40" y="40" width="120" height="80" as="geometry" />
        </mxCell>
        <mxCell id="fdzjdsh3oz5JiILfP0fA-2" value="&lt;div&gt;id&lt;/div&gt;&lt;div&gt;name&lt;/div&gt;&lt;div&gt;currency&lt;br&gt;&lt;/div&gt;" style="text;html=1;strokeColor=none;fillColor=none;align=left;verticalAlign=middle;whiteSpace=wrap;rounded=0;" vertex="1" parent="1">
          <mxGeometry x="40" y="70" width="120" height="50" as="geometry" />
        </mxCell>
        <mxCell id="fdzjdsh3oz5JiILfP0fA-3" value="Account" style="text;html=1;strokeColor=default;fillColor=none;align=center;verticalAlign=middle;whiteSpace=wrap;rounded=0;" vertex="1" parent="1">
          <mxGeometry x="40" y="40" width="120" height="30" as="geometry" />
        </mxCell>
        <mxCell id="fdzjdsh3oz5JiILfP0fA-4" value="" style="rounded=0;whiteSpace=wrap;html=1;" vertex="1" parent="1">
          <mxGeometry x="240" y="40" width="120" height="120" as="geometry" />
        </mxCell>
        <mxCell id="fdzjdsh3oz5JiILfP0fA-5" value="&lt;div&gt;id&lt;/div&gt;&lt;div&gt;account_id&lt;/div&gt;&lt;div&gt;date&lt;/div&gt;&lt;div&gt;amount&lt;/div&gt;" style="text;html=1;strokeColor=none;fillColor=none;align=left;verticalAlign=middle;whiteSpace=wrap;rounded=0;" vertex="1" parent="1">
          <mxGeometry x="240" y="70" width="120" height="90" as="geometry" />
        </mxCell>
        <mxCell id="fdzjdsh3oz5JiILfP0fA-6" value="Transaction" style="text;html=1;strokeColor=default;fillColor=none;align=center;verticalAlign=middle;whiteSpace=wrap;rounded=0;" vertex="1" parent="1">
          <mxGeometry x="240" y="40" width="120" height="30" as="geometry" />
        </mxCell>
        <mxCell id="fdzjdsh3oz5JiILfP0fA-10" value="1:N" style="text;html=1;strokeColor=none;fillColor=none;align=center;verticalAlign=middle;whiteSpace=wrap;rounded=0;" vertex="1" parent="1">
          <mxGeometry x="170" y="50" width="60" height="30" as="geometry" />
        </mxCell>
      </root>
    </mxGraphModel>
  </diagram>
</mxfile>
